<svg id="Layer_1" data-name="Layer 1" xmlns="http://www.w3.org/2000/svg" viewBox="0 0 2667.2 934.99"><defs><style>.cls-1{fill:#2b5c93;}.cls-2{fill:#a9dff8;}.cls-3{fill:#2c5c93;}.cls-4{fill:#77c8e9;}.cls-5{fill:#2d5d94;}.cls-6{fill:#336498;}.cls-7{fill:#aadff8;}.cls-8{fill:#78c9e9;}.cls-9{fill:#a9def7;}.cls-10{fill:#2d5e94;}.cls-11{fill:#a8def7;}.cls-12{fill:#a9dff7;}.cls-13{fill:#316196;}.cls-14{fill:#a8ddf6;}.cls-15{fill:#2c5d93;}.cls-16{fill:#306096;}.cls-17{fill:#79c8e7;}.cls-18{fill:#7bc9e8;}.cls-19{fill:#a6dbf4;}.cls-20{fill:#356699;}.cls-21{fill:#f5f8fa;}.cls-22{fill:#a7dcf4;}.cls-23{fill:#7ccbea;}.cls-24{fill:#a2d6ef;}.cls-25{fill:#9fd3ec;}.cls-26{fill:#a8ddf5;}.cls-27{fill:#a0d5ee;}.cls-28{fill:#326398;}.cls-29{fill:#37679a;}.cls-30{fill:#aaddf4;}.cls-31{fill:#aadcf3;}.cls-32{fill:#4776a4;}.cls-33{fill:#fafcfd;}.cls-34{fill:#c1d2dd;}.cls-35{fill:#f9fcfd;}.cls-36{fill:#afe1f7;}.cls-37{fill:#7fcceb;}.cls-38{fill:#f0f7fb;}.cls-39{fill:#d8e4ed;}.cls-40{fill:#f8fafb;}.cls-41{fill:#3b6c9e;}.cls-42{fill:#78c8e8;}.cls-43{fill:#356799;}.cls-44{fill:#f3f8fb;}.cls-45{fill:#d2e6ef;}.cls-46{fill:#aac3d6;}.cls-47{fill:#e5e5e7;}.cls-48{fill:#306297;}.cls-49{fill:#ebf4f9;}.cls-50{fill:#a8dcf5;}.cls-51{fill:#aaddf5;}.cls-52{fill:#c8e4f1;}.cls-53{fill:#8ec4df;}.cls-54{fill:#f4f7fa;}.cls-55{fill:#a2d4ec;}.cls-56{fill:#e3f3fb;}.cls-57{fill:#c2dfee;}.cls-58{fill:#9ed4ed;}.cls-59{fill:#90c6df;}.cls-60{fill:#99cce5;}.cls-61{fill:#4890e7;}</style></defs><title>GroupUs A</title><path class="cls-1" d="M736.07,206c-55.35,40.85-111.6,80.43-164.39,124.67-6.51,5.46-13.58,10.41-19.3,16.6-13.15,14.21-29.64,14.88-47.58,19-47.39,10.92-82.12-16.78-121.82-29.53-9.9-3.18-13.75-7.63-7.67-18.34,9.36-16.49,13.32-36.29,30.49-47.81,17.3-7.77,17.57-28.55,30.35-39.82a28.75,28.75,0,0,1,24-1.13c5.74.26,3.6,11.25,10.21,8.6,3.85-1.54,2.27-7.84,2.79-12.07,3.08-17.79-12.05-33-7.39-51,4.09-13.94,14.58-23.17,24.1-33.14,9.41-8,18.36-17.37,32.68-12.12,18.19,13.71,37.55,5.31,43-18.62,2.25-9.82-3.52-18.4-4.11-27.8a27.39,27.39,0,0,1,1.9-10.2C571,62.19,581.15,57,594.8,60.06c29.17-7.94,57.1-8.88,80.84,14.18-15.69,31.72,11.88,38.7,29.42,51.5,4.69,9.9,22.87,5.64,22.1,21.18,5.09,5.83,6.09,12.33,3.16,19.44-13.08,12.09-23.29-.69-34.42-4a5.55,5.55,0,0,0-5.8.9,18.5,18.5,0,0,0,5.95,2.6c8.41,3.14,14.9,8.87,21.47,14.53C724.39,188.47,737.68,191.89,736.07,206Z" transform="translate(-106.89 -51.95)"/><path class="cls-1" d="M681.78,898c8.4-33.86,14.24-67.78.56-101.7-1.24-3.09-4.13-5.53-6.3-8.29-19.39-21.55-43.29-39.9-50.16-70.38,57.86-1.53,114.42-10.15,168.83-30.6,2.23-.84,4.88-.6,7-1.54,14.11-6.23,28.91-18.9,42-17.3,13.87,1.73,27.18,10.72,43.4,11.94,17.31,1.32,34.14,38.41,30.32,56.63C910.65,769.12,892,795.93,878.2,825c-.9,18.46-14.81,30.29-23,45.09a45.89,45.89,0,0,1-11.31,10.8c-7.63,4.64-15.78,7.68-24.83,7.79-38.38,1.91-78.2-10.34-114.51,12.73C697.57,905.86,688.52,905.24,681.78,898Z" transform="translate(-106.89 -51.95)"/><path class="cls-2" d="M399.31,249.22c-8.52,12.6-16.93,25.11-23.57,39.07-14.71,30.88-20,32.6-53.94,26.72-5.78-1-11.82-.42-17.74-.57-6.53-1.55-12.48-4.66-17.29-5.73,5,3.24,13.3,5.4,17.32,13.06,10.93-.07,18.6,4.5,21.92,15.3-1.64,27.3-35.36,28.22-42.16,51.3-8,4.4-16.46,1.61-24.73,2-33.65-.82-58.38,14.46-76.26,42.19-14.77,4.27-20.53-7.58-28.37-15.78-6.3-6.76-5.63-14.76-3.94-22.93q7.2-14.7,14.48-29.42c-20.89-35.71,5.59-59.82,21.21-86.56C220.71,237.06,252.84,194,296.63,162c1.28-7.47-3.47-18.9,7.2-20.83,16.26-3,28.24-16.58,45.28-16.51,18.28-20.48,33.87,4.68,51.09,2.9,16.1,6.45,35.15,9.67,36.4,32.65-10.93,14-34.81,10.92-43.71,36.95,22.2-5.74,27-25.94,40.74-33.88,22.5-8.66,25.54,5.8,26.84,22.5-1.06,7.05-4.84,12.49-10.13,17.05C429.78,214.39,422.37,240.4,399.31,249.22Z" transform="translate(-106.89 -51.95)"/><path class="cls-1" d="M544.59,643.31a182.37,182.37,0,0,1-37.43-34.52,745,745,0,0,1,127-103.41c12.54-8.15,22.9-11,36.44-2.3C722.43,536.5,774.45,569.68,821.29,610c25.32,21.77,23.57,33.55-6.6,46.57-58.2,25.13-118.8,40-182.82,38.18C620.05,648.31,578.83,651.72,544.59,643.31Z" transform="translate(-106.89 -51.95)"/><path class="cls-1" d="M275.09,877.59l-29-24.05C186.14,789.06,139.33,717.31,119.69,630c-9.31-41.4-16.51-82.72-10.73-125.29,37.17,13.44,74.9,26.1,93.33,66,17.26,17.52,44.91,20.82,58.74,43,3.94,41.4,13.75,81.1,34.66,117.52-2,16.2-8.68,31.69-7,48.4-2.52,15.61,6.49,31.22.07,46.8C281.47,842.78,289.61,863.23,275.09,877.59Z" transform="translate(-106.89 -51.95)"/><path class="cls-1" d="M736,417.44c-.8.9-1.43,2.15-2.43,2.7-25.51,13.31-50,33.55-76.91,37.8-28.11,4.5-50.6-23.63-76.93-34.79-13.72-5.81-30-9.66-40.63-26.15,55.16-55.53,118.11-102,180.15-149.6,27.49,1.8,46.72,11.81,43.92,43.9C760.22,334.63,743,374.93,736,417.44Z" transform="translate(-106.89 -51.95)"/><path class="cls-3" d="M179,431.6c4.89-8,11.19-15.49,14.32-24.12,5.14-14.14,13.08-22.5,28.8-19.68,13.68,2.48,24.06-10.67,37.73-7.2,3.8,2.64,7.87,5,10.6,8.86,3.4,4.82,3.25,10.42,3.25,16,2.06-6.11,1.89-13.09,7-18,1.91-15.93,8.54-28.24,24.9-33.58,8.89-2.89,17.23-6.79,20.47-16.73,17.44-3.19,25.64,2.7,20.44,21.19-15.3,54.25-5.66,103.62,27.27,149.33,15.3,21.25,14.28,22-3.91,40.78-7.54,7-17.55,10.23-26.19,6.6-27.37-11.54-51.83-2.7-76.5,7.92-1.56-8.1-7.86-7.67-13.76-7.29-15.88,1-20.64-8.82-22.08-22.11-2.48-20.78-21-35.8-19.9-58.5.38-7.76-12.69.16-17.26-6.05l-7.76-8.37C175.41,453.12,170.11,444.17,179,431.6Z" transform="translate(-106.89 -51.95)"/><path class="cls-1" d="M536.93,881.71q45.6,25.32,91.25,50.61c5.27,2.91,11,4.59,7,12.9-5.63,11.93-.2,23.46,5.56,37C515,999.07,403.68,971,303.14,898.39c-.5-25.2,14.34-44.79,24.43-66.11,8-10.66,13.92-23.23,26.92-29.29l9-13.72c20.14,0,24.14,17.19,31.16,30.28,27.9,52,60.37,99.31,117.75,122.59,2.78.2,5,4.66,8.47,1.39s-1.32,2.44-2.1-2.57C491.58,910.77,521.45,898.48,536.93,881.71Z" transform="translate(-106.89 -51.95)"/><path class="cls-4" d="M550.38,862C517,843.44,487.09,820,456.92,796.8c-16.91-15.13-34.77-28.75-46.55-49.43-13.25-23.23,9-32.23,15.93-46.92,5.48-11.62,14.75-13.06,29.83-8.58A600.85,600.85,0,0,0,589.69,715.4c7.92.49,13.08,5.51,19.63,8.18,7.5,2.48,12.47,7.43,14.7,15.06,5.4,29-3.11,51.88-29.89,66.47-12.19,6.63-20.22,16.2-23.4,30.07C568,846.91,564.55,858.7,550.38,862Z" transform="translate(-106.89 -51.95)"/><path class="cls-1" d="M414.24,530.36c14.92-18.57,31.5-33.91,41.4-52.74,16.47-31.19,47.27-36.57,74.61-49.21,6.34-2.93,9,1.54,12.41,3.37,27.44,14.69,54.56,30,84,46.34-47.29,34.09-91.8,67.08-130.3,107.18-7.51,7.83-13.28,6.58-21.72.85C452.47,571,434.86,551.23,414.24,530.36Z" transform="translate(-106.89 -51.95)"/><path class="cls-4" d="M954.8,547.83c-3.6-5.6-8-9.41-8.35-13.5-3.54-45.9-24.48-86.4-39.2-128.7-9.3-26.75-9-30,17.46-39.23,18.08-6.3,37-10.4,54.61-17.85,17.31-7.35,27.17-5,32.3,14.2,6.18,23.09,14.34,45.66,20.41,68.77,3.09,11.82,2.06,24-5.85,34.6C1004.77,494.66,984.75,524.52,954.8,547.83Z" transform="translate(-106.89 -51.95)"/><path class="cls-1" d="M914.43,483.6q6.92,33.55,13.84,67.11c5.67,27.31,3.76,31.31-24,49.69-13.94,9.23-36.24,9.56-50.18-.83-19.39-14.4-38-29.93-56.92-45-35-27.83-73.5-50.34-114.19-75,18.15-15.93,38-24.92,58.32-33.15,14.72,10,25,25.33,41.29,33.4,47.11,36.6,47.23,36.59,100.27,6C893,480,903,471.33,914.43,483.6Z" transform="translate(-106.89 -51.95)"/><path class="cls-2" d="M736,417.44c-4.13-30.19-6.66-60.22,14.35-86.09,5.77-7.1,2.7-13,.2-19.9-2.41-6.71-3.75-14.21,4.66-18.72,6.68-8.63,7.2-20.88,16.37-28.1,8.56-9.62,15.16-21.83,30.07-23.2,25.42,30.89,41.72,67.08,59.92,102.21,6.77,13.06,2.59,19.8-9.61,25.13-24.21,10.59-47.49,23.89-72.51,31.8C764.47,405.32,752,415.76,736,417.44Z" transform="translate(-106.89 -51.95)"/><path class="cls-4" d="M513.89,949.69c-46.8-13.9-78.08-45.82-103.79-85.8-15.87-24.67-24.3-54-46.62-74.59,28.41-8,46.68-5.77,62.39,8.18,7.07,6.3,13.3,13.69,23.76,14.19,23.1,30.83,58.5,46.32,87.3,70.07,2,19.21-15.36,24.52-25.58,35.38,8.32,6.79,8.1,19.8,18.56,25.12C529.85,956.06,521.68,952.47,513.89,949.69Z" transform="translate(-106.89 -51.95)"/><path class="cls-4" d="M967.28,569.29c23.54-27,40.92-59.08,72.7-89.88,0,30.92,2.37,55.62-.47,79.7-7.31,62.35-22.18,122.84-53.46,178.2-4,7.15-6.52,16.2-17.44,15.75-22.5-37.19-6.72-77.24-7.72-115.88C960.31,614.67,963.31,591.75,967.28,569.29Z" transform="translate(-106.89 -51.95)"/><path class="cls-3" d="M365.14,346.61c27,11.83,53.46,22.8,79.37,35,23.24,10.94,29.21,34,13.59,55.09-18.53,25-38.66,48.84-59.36,74.77C355.27,462.43,343.51,408.79,365.14,346.61Z" transform="translate(-106.89 -51.95)"/><path class="cls-4" d="M914.43,483.6c-5.86-.65-11.9-2.75-17.33,1.2-2.88,2.1-5.16,5-8.05,7.11-44.49,32.11-61.64,43.48-112.41-8.31,20.78-32.71,45-62.52,74.39-88,26.24-7.69,26.91-8,36.11,14.61C897,434.4,905.4,459.13,914.43,483.6Z" transform="translate(-106.89 -51.95)"/><path class="cls-5" d="M202.29,570.71c-18.38-23.76-48.3-31.39-70.58-50-6.71-5.61-14.09-12.26-22.75-16C105.88,461.2,117.53,404,135.55,374c14.08-.26,2.17,19.13,15,19.8,13.5,1.24-4.82,13.66,5.61,16,5.57,2.7,5.4,7.82,5.65,12.8-6,27.9,3.84,50,24.78,68.14l43.14,74.7C221,573.35,210.62,566.58,202.29,570.71Z" transform="translate(-106.89 -51.95)"/><path class="cls-6" d="M399,132.72c-13.5-.11-27.66,2.45-37.62-11.08-.95-1.28-8,1.94-12.21,3.06-3.42-10.28,2.54-16,10.52-19.87,45.18-22,92.07-39.29,142.2-44.91,24.89-2.8,49.43-10.07,74.89-7.39,6.83.72,14.8-1.62,18.08,7.52L564.63,75c-18.84,21-50.24,15.4-70.49,33.36-4.43,5-9,9.77-15.41,12.34-15.85,2.08-32.07-4.07-47.77,2.09-9.23,2.61-18.13,6.22-27.26,9.16C402.13,132.2,400.54,132.49,399,132.72Z" transform="translate(-106.89 -51.95)"/><path class="cls-7" d="M436.08,577c13.44,8.41,23.18,20.6,34,31.91-7.11,10.59-13.16,20.81-20.38,30.12-22.76,29.32-22.94,29.19-58,14.81-41.66-17.1-41.92-17.2-21.6-55.8,6.66-12.6,15.06-24.36,22.67-36.5C410,558.8,419.94,576.55,436.08,577Z" transform="translate(-106.89 -51.95)"/><path class="cls-8" d="M931.42,228.15c29.92,20.75,40.75,54.55,56.89,84.53,4.8,8.9-.37,14.67-11.26,17-30,6.3-59.69,14-89.51,21.1-7.78-9.06-4.41-18.7,0-27.21C903.8,292.46,909,256.33,931.42,228.15Z" transform="translate(-106.89 -51.95)"/><path class="cls-7" d="M779.88,182c-25.91-36.23-54.83-66.25-75.7-102.44,5.09-2.64,7.71-5.14,9.15-4.58C748.9,88.81,786,99.47,817,123c15.07,11.41,16.2,21.6,4.28,35.17C810.59,170.38,795.13,174.34,779.88,182Z" transform="translate(-106.89 -51.95)"/><path class="cls-9" d="M267.16,562.91c5.4-1.13,6.45-5.9,9.07-9.82,11.23-16.75,26.57-22.09,45.26-13.22,15.45,7.32,31.39,10.4,48.33,8.52-.73,28.31-24.81,46-32.58,71.21-1.12,3.6-6.17,9.06-11.49,4.74-17.57-14.26-45.15-10.51-58.19-32.65-5.15-9.83-7.2-19.65.06-29.46Z" transform="translate(-106.89 -51.95)"/><path class="cls-10" d="M333.19,834c-7.71,22.5-17.1,44.3-30.05,64.38l-21.86-14.6a88.34,88.34,0,0,1,3.45-57.22c1.66-13.22.78-27.15,10.43-38.2l9.9-35.5c21.39-4,36.08,7,48.89,22l-6.72,20.19C345.13,809,337.45,820.89,333.19,834Z" transform="translate(-106.89 -51.95)"/><path class="cls-11" d="M931.42,228.15c-3.41,33.67-21.85,62-32.85,93-3.51,9.9-12.08,17.93-11,29.55-14.53-3-16.6-16.91-21-27-9.83-22.7-27-42.3-29.87-68,13.75-10.62,27.19-5.84,40.6.8-1-12.72,4-20.41,17.1-23.4,9.39-2.15,19.21-1.87,28.29-5.47Z" transform="translate(-106.89 -51.95)"/><path class="cls-12" d="M851,395.64c-19.8,33.54-41.88,65.17-74.39,88-17.1-7.31-33.46-15.39-35.35-37.19C776.92,427.42,812.08,407.43,851,395.64Z" transform="translate(-106.89 -51.95)"/><path class="cls-13" d="M842.76,877.85c1.06-4.89,3.86-8.1,8.82-9.32,15.19-11.54,19.42-33,37.65-41.79,20.24-20.45,27.43-49.32,45.32-71.84,3.7,27.46,10.91,54.66-11,77.45-15.79,14.77-31.5,29.61-47.4,44.26-11.47,10.58-22.7,21.78-40,21.6C831.28,889.1,837.16,883.52,842.76,877.85Z" transform="translate(-106.89 -51.95)"/><path class="cls-10" d="M922.71,227.69c-4.31,9.32-10.91,14.78-21.85,14.69-10.19-.07-22.9-2.7-16.55,16.07,2,5.9-6.68,6-9.9,4.56-12.11-5.56-25.06-5.4-37.74-7.2,0-8.44-6.63-13.5-10.1-20.25,5.31-12.66,12-24.42,22.71-33.45a39.71,39.71,0,0,1,9.82-3.93c14-1,28.17-6.19,41.93,1.22Z" transform="translate(-106.89 -51.95)"/><path class="cls-14" d="M295.68,731.24c-18.44-21.34-36.68-41.67-39.18-72.9-1.28-16,8.68-29.34,4.5-44.6,16.12,17.1,25,39.88,43.32,55.27,5.91,5,9.34,12.48,5.82,19.14C302.88,701.83,305.63,718.65,295.68,731.24Z" transform="translate(-106.89 -51.95)"/><path class="cls-15" d="M967.28,569.29c13.29,10.05,9.32,25.33,6.78,36.6-11,48.92-4.78,98.1-5.4,147.15-7,10-7.52,10.19-8.55,6.81-8.1-26.23-20.44-51.15-10.8-80.67,8-24.39,3-50.67,3.38-76.1C952.84,589.46,951.78,576,967.28,569.29Z" transform="translate(-106.89 -51.95)"/><path class="cls-16" d="M296.63,162c-29.57,42.86-68.4,77.51-102.88,116-12.21-.69-10.67-7.48-6.8-15.3,20.86-37.22,49.41-68,81-96.1C276.49,159.06,285.57,154.14,296.63,162Z" transform="translate(-106.89 -51.95)"/><path class="cls-12" d="M369.31,716.14c-12.16-6.12-19.43-17.62-29.14-26.42-11.95-10.8-5.54-21.44.34-32.25,6.74-12.38,13.85-2,21.07-1,12.24,1.71,22.19,8.47,33.08,13.23,23.68,10.36,23.73,10.27,4.35,31.45C389.52,707,379.28,711.3,369.31,716.14Z" transform="translate(-106.89 -51.95)"/><path class="cls-17" d="M544.59,643.31c21.07-1.12,41.06-3.6,62.86,4.41,18.47,6.81,26.51,13.7,24.53,32.5-.51,4.79-.1,9.69-.11,14.54-19.47,4.42-34.46-2.54-48.06-16.61C571.69,665.61,557.74,654.85,544.59,643.31Z" transform="translate(-106.89 -51.95)"/><path class="cls-18" d="M353.94,774.91c-18.21-3.1-31.84-16.36-48.89-22,3.46-9.9,6.26-20.11,10.5-29.7,7.51-16.91,9.44-15.42,25.53-4.73C364.53,734.05,355,755,353.94,774.91Z" transform="translate(-106.89 -51.95)"/><path class="cls-19" d="M777.62,270.34a77.87,77.87,0,0,1-22.38,22.35c1.51-14,5.33-28.26-16.66-30.92-6.91-.85-12.9-9.4-19.3-14.4,14.32-13.71,28.38-27.9,50.34-27.79C789.64,233.78,778.43,252.88,777.62,270.34Z" transform="translate(-106.89 -51.95)"/><path class="cls-7" d="M472.4,678.41c-20.94-10.8-22.5-13.75-11.17-27.7,8.17-10.06,18.08-18.71,28.8-29.59,9.39,14.93,28.8,17.47,33.64,35.31C512.19,676.83,488.61,669,472.4,678.41Z" transform="translate(-106.89 -51.95)"/><path class="cls-20" d="M187,262.74c.68,5.81-.82,12.6,6.8,15.3-17.34,26.21-33.86,52.69-28.72,86.4-15,4.28-23.9-.22-22.5-16.94,1.2-14.77,9.43-27.2,16-40C166.52,291.74,174.84,276,187,262.74Z" transform="translate(-106.89 -51.95)"/><path class="cls-21" d="M617.5,738.85l-8.19-15.3c4.5-1.4,6.25-5.09,8.73-8.82,4.36-6.53,6.11-.61,7.9,2.88,18.71,22,41.25,41.4,50.15,70.39-.43,7.06-.83,14.13-9.66,16.2C637.86,791.59,632.36,761.72,617.5,738.85Z" transform="translate(-106.89 -51.95)"/><path class="cls-22" d="M736.07,206c-3.8-11.27-22.22-7.92-22.63-22.6,1.84-7.2,8.19-10.56,13-15.24l.75-21.28c23,1.14,28.73,22.28,34.31,36.76C768.06,200.71,747.43,201.27,736.07,206Z" transform="translate(-106.89 -51.95)"/><path class="cls-23" d="M472.4,678.41c14-14.48,33.66-15.88,51.3-22,17.4,2.7,24.23,17.79,39.9,30.71C528.71,690.83,501.07,678.57,472.4,678.41Z" transform="translate(-106.89 -51.95)"/><path class="cls-24" d="M705.07,125.73c-3.66,6.81-9.05,7.61-14.33,2.7-9.63-8.9-19.1-18.06-27.84-27.82-15.25-17-13.38-20.59,12.75-26.4C680.69,94.11,695.28,108.56,705.07,125.73Z" transform="translate(-106.89 -51.95)"/><path class="cls-25" d="M194.16,469c4.55-.9,10-.23,12.74-5,4.4-7.66,10.58-16,19.1-9.9,10.44,7.36-.81,14.11-4.63,20.46s-8.88,16.25-2.05,18.76c23.72,8.72,11.43,26,12,40.24C212.8,515.53,204.59,491.59,194.16,469Z" transform="translate(-106.89 -51.95)"/><path class="cls-26" d="M901.05,199.36c-13.5,9.08-28.19,7.57-43,4.5-6.2-6.86-5.59-13.78-.17-20.7,1-20.17,15.54-15.76,25.57-11.51C894.1,176.14,903.76,184.69,901.05,199.36Z" transform="translate(-106.89 -51.95)"/><path class="cls-13" d="M930.75,682.08c-17.31-11.59-22.26-26.53-22-45.58.16-14.69,7.75-21.22,21.91-29.31C934.54,633.27,931,657.25,930.75,682.08Z" transform="translate(-106.89 -51.95)"/><path class="cls-27" d="M186.59,490.75c-33-9.51-41.14-28-29.79-67.89,16.41,7.33,17.6,23.77,22.67,37.89C178.09,471.64,189.9,479.4,186.59,490.75Z" transform="translate(-106.89 -51.95)"/><path class="cls-28" d="M777.62,270.34c-4.5.42-12.81-1.8-12.14-2.4,17-15.08,4.36-32.24,4.14-48.33,4.76-8.1,10.49-8.62,17.1-2.16,6.92,6.78,12.22,14.58,15,24Z" transform="translate(-106.89 -51.95)"/><path class="cls-29" d="M850.84,206.38c-9.83,8.27-2.18,31.07-24.3,29.15-17-.9-17.1-17.1-24.9-26.72,8.18-7.92,18.14-1.9,26.73-4.36C836.36,199.67,844,198.91,850.84,206.38Z" transform="translate(-106.89 -51.95)"/><path class="cls-30" d="M850.84,206.38l-22.42-1.89a66.44,66.44,0,0,1-.46-6.92c.31-8-22-8.33-7.55-20.29,9.44-7.81,20.36-11.18,27.56,4.5.75,1.65,6.49,1,9.9,1.44q.07,10.36.17,20.7Z" transform="translate(-106.89 -51.95)"/><path class="cls-31" d="M435.5,234.69c-1.14,4.5-4.07,9.4-3.1,13.36,6.3,25.95-10,24.24-26.58,22.59q.39-10.67.79-21.31c3.49-9.66,11.56-14,20.38-17.38A11.26,11.26,0,0,1,435.5,234.69Z" transform="translate(-106.89 -51.95)"/><path class="cls-32" d="M436.08,577c-3.2,6.23-8,9-14.27,4.82-9.9-6.48-19.38-13.5-29-20.33,4.09-6.38,5.82-18,17.45-8.61C419.37,560.32,430,566.29,436.08,577Z" transform="translate(-106.89 -51.95)"/><path class="cls-33" d="M428.14,234.59c-4.32,9.08-14.62,9.43-21.53,14.74l-7.3-.11c8.83-12.6,17.26-25.47,26.63-37.63,5.78-7.52,12.26-15.24,23.72-13.21C453.94,217.26,437.05,223.56,428.14,234.59Z" transform="translate(-106.89 -51.95)"/><path class="cls-34" d="M889.23,826.74c-9.83,16.38-15,37-37.65,41.79,1.43-19.1,14.4-31.17,26.67-43.61Z" transform="translate(-106.89 -51.95)"/><path class="cls-35" d="M179.47,460.75c-11.34-10.37-14.07-25.88-22.67-37.89l-.64-13.06c12.93,1.69,10.64,19.31,22.8,21.8,1.28,10,1.29,20.28,7.44,29C184.08,460.59,181.78,460.63,179.47,460.75Z" transform="translate(-106.89 -51.95)"/><path class="cls-36" d="M299.79,631.46c6.1-5.24,10.28,1.12,15.38,2.7,7.85,2.52,11.81,7.28,10,15.61-.47,2.11-1.86,5.14-3.51,5.67-8.44,2.7-12.72-4-17.34-9C300.59,642.56,295.2,638.5,299.79,631.46Z" transform="translate(-106.89 -51.95)"/><path class="cls-37" d="M369.31,716.14c1.06-22.5,18.37-12.81,29.7-15-4,5.71-8.8,11-11.87,17.21C378.57,735.6,374.37,723.62,369.31,716.14Z" transform="translate(-106.89 -51.95)"/><path class="cls-38" d="M304.09,321.77c-12.6-8.1-30-6-41.34-19.67,17-4.69,30.35-.34,41.31,12.34Z" transform="translate(-106.89 -51.95)"/><path class="cls-39" d="M333.19,834c-3.35-1.27-7.12-4.75-5.22-7,8.1-9.69,8.68-23.83,19.25-31.89,1,3.9,2.92,7,7.27,7.89C349.37,814.69,346.26,827.77,333.19,834Z" transform="translate(-106.89 -51.95)"/><path class="cls-40" d="M295.2,788.37q-3.39,18.09-6.8,36.17-3.24,3.94-7,.55c2.64-15.12-3.84-31.7,7.3-45.45C289.49,783.55,291.11,786.88,295.2,788.37Z" transform="translate(-106.89 -51.95)"/><path class="cls-41" d="M267.62,562.23l-.06,29.46c-7.05-1.43-7.85-8.28-10.94-13C247.59,565,256.24,562.6,267.62,562.23Z" transform="translate(-106.89 -51.95)"/><path class="cls-1" d="M617.5,738.85c23.64,16.3,32,44,48.93,65.34,11.7,41,7.49,79.51-18.28,116-35.46-15.44-68.21-34.07-97.78-58.19,4.22-11.6,15.21-19.75,10.91-35.79-3.45-12.86,11.7-24,20.89-26.18C617.39,791.68,617.83,766.09,617.5,738.85Z" transform="translate(-106.89 -51.95)"/><path class="cls-42" d="M681.78,898c2.41,0,5.46.9,7.12-.18,30.41-20.53,65.11-18.3,99.38-20.26,12.66-.72,23.53-.42,33.76,7,2.36,7.3-1.38,12.77-5.4,18.17-8.95,9.32-18,18.62-27.9,26.94-8.31,4.36-16,10.18-25.65,11.55-4.5,1.43-9.47,2.07-13.44,4.41-27.82,16.4-47.13,11.51-67.22-17.46,18-14.58-14.06-7.57-7.44-17.24C675.88,906,675.15,900.07,681.78,898Z" transform="translate(-106.89 -51.95)"/><path class="cls-43" d="M702.53,967.88c-12.92,3.84-22.93,7.64-33.3,9.69-14.74,2.9-23.55-5-22.13-19.35.9-9.61,4.86-16.2,16.43-10.8C676.29,953.34,690,957.46,702.53,967.88Z" transform="translate(-106.89 -51.95)"/><path class="cls-44" d="M784.15,926.94A93.16,93.16,0,0,1,814,897.76c8.15-3.84,15.62-6.3,14.9,7.51-2.07,12.55-17.38,11.81-21.94,21.86C799.34,931.69,791.71,933.07,784.15,926.94Z" transform="translate(-106.89 -51.95)"/><path class="cls-45" d="M784.15,926.94l22.84.19c-7.61,12.28-22.5,12.91-33.18,20.29-4.44,3.06-8.89-.9-10.7-6.14C767,931.93,773.69,926.67,784.15,926.94Z" transform="translate(-106.89 -51.95)"/><path class="cls-46" d="M281.35,825.09a69.26,69.26,0,0,0,7-.55c-4.27,19.52-8.49,39-7.08,59.25-3.56-.59-6-2.28-6.23-6.2C278.24,860.22,267.43,841.18,281.35,825.09Z" transform="translate(-106.89 -51.95)"/><path class="cls-47" d="M828.93,905.27c-2.2-8-8.84-7.2-14.9-7.51l8-13.14c6.86-2.39,12-10.17,20.7-6.77,2,8.1-6.39,12.91-6.65,20.34A8.29,8.29,0,0,1,828.93,905.27Z" transform="translate(-106.89 -51.95)"/><path class="cls-48" d="M675,911c3.49.76,7.52.66,10.33,2.47,3.79,2.43,6.62,6.3,9.9,9.61l-12.76,5.17C665.81,925.62,664.9,923.52,675,911Z" transform="translate(-106.89 -51.95)"/><path class="cls-49" d="M431.34,118.65c15.47-15.3,31.59-9.06,47.75-1.41,12-2.09,16.7,5.24,19.45,15.08a27.76,27.76,0,0,1-4.63,15.79l-22.5,28.12c-3.83,4.54-6.3,11.46-14.51,8.31-5.18-9.67-9-20.64-22.19-22.41l.08.06c-4.18-19.28-25-18.36-35.86-29.47l-.26-.25C407.83,123.76,422.58,128.19,431.34,118.65Z" transform="translate(-106.89 -51.95)"/><path class="cls-50" d="M564.62,81.31c4,7.26,7.3,14.94,12,21.67,5.3,7.59,3,12.09-2.86,18.25-8.1,8.48-18.9,14.86-22.75,27.24-2.18,7-6.38,13.95-15.15,12.05C528.41,158.9,524,153,523.11,145c-.38-3.6-.56-7.2-.83-10.74-4.79-6.47-6.68-13.5-3.81-21.31C532.59,100.62,539.92,78.28,564.62,81.31Z" transform="translate(-106.89 -51.95)"/><path class="cls-51" d="M456.92,184.54l14.51-8.31c1.59,9-1.1,18.9,8.55,26,11.18,8.23,2.83,16.88-1.53,25-3.43,4.9-7.91,7.83-14.13,7.46h-28.8l-7.36-.1c-2.21-17.65,17.3-22.39,21.53-36.21Z" transform="translate(-106.89 -51.95)"/><path class="cls-52" d="M564.62,81.31c-8.61-.57-11.11,5.81-15.1,11.76-6.46,9.66-14.17,18.9-27.9,18a12.72,12.72,0,0,1-9.08,2.7c-9.39-2-19.8-1.8-25.84-11.37,2.9-3.68,5.94-10.63,8.67-10.51C520.22,92.93,540.65,76.71,564.6,75A8,8,0,0,1,564.62,81.31Z" transform="translate(-106.89 -51.95)"/><path class="cls-53" d="M726.43,168.19c1.25,9.84-1.72,16.09-13,15.24-10.35-.31-13.5-12.31-23-14.1-3.94-5.07-3.94-10.12.08-15.16C704.53,153.68,713.85,165.13,726.43,168.19Z" transform="translate(-106.89 -51.95)"/><path class="cls-54" d="M518,111a19.26,19.26,0,0,0,3.72,0l.62,23.26c-14.4-5.51-18.4,10.26-28.37,13.83q-.24-7.46-.47-14.91C498.37,122.23,503.14,111.08,518,111Z" transform="translate(-106.89 -51.95)"/><path class="cls-55" d="M464.32,234.72c2.07-7.51,8.19-7.31,14.13-7.46,8.18,19.36,6.26,23.4-11.05,21.79C452.11,247.69,465.91,239.4,464.32,234.72Z" transform="translate(-106.89 -51.95)"/><path class="cls-56" d="M690.57,154.17q0,7.58-.08,15.16c-2.31,4.87-7.37,8.47-10.89,4.66-7-7.6-6.41-17.78.08-25.2C682.89,145.09,688.08,149.68,690.57,154.17Z" transform="translate(-106.89 -51.95)"/><path class="cls-57" d="M609,119c3.93-.9,7.59,1.23,8.1,4.22.85,4.72-1.52,9.1-7.27,9.22-4,.08-10,1.8-10.15-4.6C599.6,122.74,604.79,120.72,609,119Z" transform="translate(-106.89 -51.95)"/><path class="cls-10" d="M434.73,162.13c-4.16,19.14-13.6,33.79-30.9,44.66-12.86,8.1-17.29-1.23-23.12-7.45-8.17-8.71-2.7-16.12,5.4-20.34,15.3-8,27.95-24.38,48.68-16.81Z" transform="translate(-106.89 -51.95)"/><path class="cls-2" d="M280.64,387.4c2.81,12.29-.55,23-10,36.17-5.89-15.75,1.25-32.4-10.88-43C268.1,378.71,274,384.19,280.64,387.4Z" transform="translate(-106.89 -51.95)"/><path class="cls-2" d="M303.92,468.06c8.88,2,19.35-3.6,28.17,7.2-7.49,10.58-18.71,9-28.06,6.16-10-3.07,2.46-9,.27-13.85Z" transform="translate(-106.89 -51.95)"/><path class="cls-58" d="M304.3,467.57c-10.21.24-21.46,3.46-27.9-11.32,12.9-3.51,20.84,2.49,27.55,11.81Z" transform="translate(-106.89 -51.95)"/><path class="cls-59" d="M513.89,949.69c6.06-.9,13.29.67,16-7.45,6.42,1,12,4.87,11.11,11-.71,4.71-7.63,2.84-11.95,3.07C522.93,956.62,517.34,955.52,513.89,949.69Z" transform="translate(-106.89 -51.95)"/><path class="cls-28" d="M518,111c-7.33,8.33-14.22,17.1-24.5,22.2l-14.34-16,7.64-14.9C497.51,103.89,510.3,98.18,518,111Z" transform="translate(-106.89 -51.95)"/><path class="cls-60" d="M431.34,118.65c-6.7,13.66-6.7,13.66-32.65,13.82C404.83,116.65,418,117.45,431.34,118.65Z" transform="translate(-106.89 -51.95)"/><path class="cls-61" d="M1395.7,577.43c-14,33.6-46,50.8-90,50.8-73.2,0-118-51.2-118-137.2,0-85.2,50.8-138,121.6-138,41.2,0,72.8,18.4,85.2,51.2l7.2-46.4h23.2v96.8h-31.6c-9.6-53.2-38-75.2-80-75.2-52,0-85.2,38-85.2,106.4v9.6c0,70,30.4,106.4,84.4,106.4,42,0,72.8-24.8,72.8-71.2v-8.4h-66.4V499h106v124.4h-18.4Z" transform="translate(-106.89 -51.95)"/><path class="cls-61" d="M1520.5,471c10-33.2,30.8-46.4,53.6-46.4,27.6,0,43.2,17.6,43.2,42,0,20.4-11.6,33.6-28.8,33.6-11.6,0-21.2-9.6-21.2-20.8a21.67,21.67,0,0,1,16.8-20.8c-2-4-7.6-8.8-17.6-8.8-30.4,0-45.2,30.4-45.2,76V591c0,8,2,9.2,5.6,9.2h24.4v23.2h-96.4v-23.2h22.4c4,0,6-1.2,6-9.2V463.43c0-8.4-1.6-10.8-6-10.8h-23.2v-23.2h21.6c18.4,0,36.4-2,44.8-3.6Z" transform="translate(-106.89 -51.95)"/><path class="cls-61" d="M1632.1,526.23c0-60,40.8-101.6,100.8-101.6,58.4,0,98.4,41.2,98.4,101.6s-40.4,102-100,102C1672.1,628.23,1632.1,587,1632.1,526.23Zm161.2,2v-3.6c0-49.2-22-75.6-61.2-75.6-39.6,0-61.6,26.8-61.6,75.6v3.6c0,48.8,21.6,75.6,61.2,75.6S1793.3,576.63,1793.3,528.23Z" transform="translate(-106.89 -51.95)"/><path class="cls-61" d="M2006.9,627V585c-12.8,28-36,43.2-66.8,43.2-39.2,0-62-20-62-67.2v-99.2c0-8-2-9.2-5.6-9.2h-22.79v-23.2h66.79v130.4c0,31.6,14,42,37.6,42,32.8,0,52.4-28,52.4-70.8v-69.2c0-8-2-9.2-5.6-9.2h-24v-23.2h67.6v160c0,8.4,1.6,10.8,6,10.8h23.2v23.2h-22.4C2033.3,623.43,2015.3,625.43,2006.9,627Z" transform="translate(-106.89 -51.95)"/><path class="cls-61" d="M2090.9,669h22.4c4,0,6-1.2,6-9.2V463.43c0-8.4-1.6-10.8-6-10.8h-23.2v-23.2h22c18.4,0,36.4-2,44.4-3.6v46.4c12.4-29.6,37.2-47.6,72.4-47.6,53.6,0,87.6,40,87.6,101.6s-35.2,102-88.8,102c-34.4,0-58-17.6-70.4-44.8v76.4c0,8,2,9.2,5.6,9.2h22.8v23.2h-94.8Zm186.4-140v-5.2c0-47.2-24-72.8-60.4-72.8-35.2,0-59.6,26-59.6,72.8V529c0,46.4,24.8,72.4,59.6,72.4C2253.3,601.43,2277.3,576.23,2277.3,529Z" transform="translate(-106.89 -51.95)"/><path class="cls-61" d="M2370.1,530.63v-140c0-8-1.6-9.6-6.4-9.6h-22v-23.2h97.2V381h-24c-4.4,0-6.4,1.6-6.4,9.6v138.8c0,53.6,17.6,72,70.8,72,48,0,68.8-22,68.8-70.4V390.63c0-8-1.6-9.6-6.4-9.6h-25.6v-23.2h88.39V381h-23.6c-4.39.4-6.39,1.6-6.39,9.6V533c0,64.4-33.6,95.2-101.6,95.2C2398.5,628.23,2370.1,601,2370.1,530.63Z" transform="translate(-106.89 -51.95)"/><path class="cls-61" d="M2620.9,560.63h29.6v37.6c9.6,4.4,24.79,7.6,43.2,7.6,28,0,45.19-10.4,45.19-31.6,0-22.8-22-28.4-50.4-34-33.6-6.4-67.59-16.4-67.59-56,0-35.6,28.8-59.6,78.39-59.6,27.2,0,53.2,8,68.8,16.4v50h-29.6v-35.6c-8-4.8-22.4-8.4-38.4-8.4-28,0-44,11.2-44,30.4,0,23.6,22.79,26.8,50.39,32,35.2,6.8,67.6,18,67.6,57.6,0,36.8-29.2,61.2-80,61.2A170.18,170.18,0,0,1,2620.9,611Z" transform="translate(-106.89 -51.95)"/></svg>
